<?xml version="1.0" encoding="utf-8"?>
<!-- Generator: Adobe Illustrator 25.0.0, SVG Export Plug-In . SVG Version: 6.00 Build 0)  -->
<svg version="1.1" id="Vrstva_2" xmlns="http://www.w3.org/2000/svg" xmlns:xlink="http://www.w3.org/1999/xlink" x="0px" y="0px"
	 viewBox="0 0 22.27 18.2" style="enable-background:new 0 0 22.27 18.2;" xml:space="preserve">
<style type="text/css">
	.st0{fill:#5F5B5B;}
	.st1{fill:#A9A9A9;}
	.st2{fill:#EAAE86;stroke:#000000;stroke-width:0.0548;stroke-miterlimit:10;}
	.st3{fill:#F7F1A4;}
	.st4{fill:#353535;stroke:#1D1D1C;stroke-width:0.0219;stroke-miterlimit:10;}
	.st5{fill:none;stroke:#1D1D1C;stroke-width:0.0882;stroke-miterlimit:10;}
</style>
<path class="st0" d="M12.03,14.82c-0.54,0.15-1.12,0.23-1.73,0.23c-3.37,0-6.11-2.74-6.11-6.11c0-0.94,0.22-1.83,0.6-2.63
	c0.05-0.13,0.12-0.26,0.2-0.39c0.07-0.11,0.13-0.23,0.2-0.33l0.72,0.72L6.7,7.1l0.77,0.77l0.97-0.7l0.94-0.68l0.41,0l0,0.67v5.11H9
	V7.73L7.41,8.86L7.37,8.9L7.34,8.85L5.55,7.07c-0.24,0.58-0.36,1.2-0.36,1.87c0,2.83,2.29,5.11,5.11,5.11
	c0.43,0,0.84-0.05,1.25-0.15L12.03,14.82z"/>
<path class="st1" d="M15,8.34V8.33c-0.03-0.02-0.04-0.05-0.07-0.08c0.01-0.02,0.02-0.04,0.03-0.05C15.18,7.84,15.3,7.44,15.3,7
	c0-0.39-0.1-0.77-0.27-1.08C15.02,5.89,15.02,5.88,15,5.87c-0.13-0.19-0.27-0.37-0.43-0.55c-0.05-0.05-0.11-0.11-0.18-0.15
	c-1.1-1.19-2.67-1.93-4.41-1.93c-1.95,0-3.19,0.38-4.3,1.81l0.76,0.64c0.93-1.16,1.94-1.45,3.55-1.45c0.73,0,1.45,0.15,2.07,0.45
	h-1.33v7.42h0.83V12.1h1.55l0.07-0.01c0.35-0.02,0.66-0.09,0.96-0.25c0.02-0.01,0.05-0.03,0.08-0.04c0.14-0.08,0.27-0.18,0.39-0.27
	v-0.01c0.51-0.43,0.84-1.07,0.84-1.8C15.46,9.21,15.3,8.73,15,8.34z M13.38,11.23c-0.13,0.04-0.26,0.05-0.39,0.05h-1.42v-5.8h1.17
	c0.03-0.01,0.08-0.01,0.11-0.01c0.03,0,0.08,0,0.11,0.01c0.16,0,0.32,0.03,0.46,0.1c0.54,0.19,0.93,0.66,1,1.23
	c0.02,0.07,0.02,0.13,0.02,0.2c0,0.25-0.07,0.48-0.18,0.69c-0.02,0.04-0.04,0.09-0.08,0.12h-1.92V8.6h1.81
	c0.1,0.08,0.19,0.19,0.26,0.3c0.16,0.24,0.25,0.53,0.25,0.83C14.59,10.45,14.07,11.06,13.38,11.23z"/>
<path class="st2" d="M14.46,14.29c0,0.38-1.37,0.69-1.83,0.69c-0.45,0-0.82-0.31-0.82-0.69c0-0.38,0.37-0.69,0.82-0.69
	C13.09,13.59,14.46,13.9,14.46,14.29z"/>
<path class="st3" d="M12.61,13.78c-0.33,0-0.6,0.13-0.71,0.32c0.14-0.09,0.33-0.16,0.55-0.16c0.41,0,1.65,0.21,1.67,0.46
	c0.09-0.05,0.15-0.1,0.15-0.15C14.28,13.99,13.02,13.78,12.61,13.78z"/>
<rect x="11.33" y="13.88" transform="matrix(0.9835 -0.1808 0.1808 0.9835 -2.4079 2.3564)" class="st4" width="0.79" height="1.02"/>
<path class="st5" d="M13.07,14.18c0.37,0.09,0.75,0.13,1.14,0.12c-0.22,0.07-0.45,0.15-0.68,0.15c-0.11,0-0.21-0.01-0.32-0.03"/>
</svg>
